<svg xmlns="http://www.w3.org/2000/svg" viewBox="0 0 1200 630" width="1200" height="630">
  <defs>
    <linearGradient id="bg" x1="0%" y1="0%" x2="100%" y2="100%">
      <stop offset="0%" stop-color="#0a0e17"/>
      <stop offset="50%" stop-color="#0f172a"/>
      <stop offset="100%" stop-color="#0a0e17"/>
    </linearGradient>
    <linearGradient id="accent" x1="0%" y1="0%" x2="100%" y2="0%">
      <stop offset="0%" stop-color="#14b8a6"/>
      <stop offset="50%" stop-color="#3b82f6"/>
      <stop offset="100%" stop-color="#8b5cf6"/>
    </linearGradient>
    <linearGradient id="accent2" x1="0%" y1="0%" x2="100%" y2="100%">
      <stop offset="0%" stop-color="#5eead4"/>
      <stop offset="100%" stop-color="#3b82f6"/>
    </linearGradient>
    <linearGradient id="glow" x1="50%" y1="50%" x2="50%" y2="100%">
      <stop offset="0%" stop-color="#3b82f6" stop-opacity="0.15"/>
      <stop offset="100%" stop-color="#3b82f6" stop-opacity="0"/>
    </linearGradient>
    <filter id="glow-filter">
      <feGaussianBlur stdDeviation="60" result="blur"/>
      <feMerge><feMergeNode in="blur"/><feMergeNode in="SourceGraphic"/></feMerge>
    </filter>
  </defs>
  <rect width="1200" height="630" fill="url(#bg)"/>
  <ellipse cx="600" cy="315" rx="500" ry="315" fill="url(#glow)"/>

  <!-- Grid dots -->
  <g fill="#1e293b" opacity="0.5">
    <circle cx="100" cy="100" r="2"/><circle cx="200" cy="100" r="2"/><circle cx="300" cy="100" r="2"/>
    <circle cx="400" cy="100" r="2"/><circle cx="500" cy="100" r="2"/><circle cx="600" cy="100" r="2"/>
    <circle cx="700" cy="100" r="2"/><circle cx="800" cy="100" r="2"/><circle cx="900" cy="100" r="2"/>
    <circle cx="1000" cy="100" r="2"/><circle cx="1100" cy="100" r="2"/>
    <circle cx="100" cy="200" r="2"/><circle cx="200" cy="200" r="2"/><circle cx="300" cy="200" r="2"/>
    <circle cx="400" cy="200" r="2"/><circle cx="500" cy="200" r="2"/><circle cx="600" cy="200" r="2"/>
    <circle cx="700" cy="200" r="2"/><circle cx="800" cy="200" r="2"/><circle cx="900" cy="200" r="2"/>
    <circle cx="1000" cy="200" r="2"/><circle cx="1100" cy="200" r="2"/>
    <circle cx="100" cy="315" r="2"/><circle cx="200" cy="315" r="2"/><circle cx="300" cy="315" r="2"/>
    <circle cx="400" cy="315" r="2"/><circle cx="600" cy="315" r="2"/><circle cx="700" cy="315" r="2"/>
    <circle cx="800" cy="315" r="2"/><circle cx="900" cy="315" r="2"/><circle cx="1000" cy="315" r="2"/>
    <circle cx="1100" cy="315" r="2"/>
    <circle cx="100" cy="430" r="2"/><circle cx="200" cy="430" r="2"/><circle cx="300" cy="430" r="2"/>
    <circle cx="400" cy="430" r="2"/><circle cx="500" cy="430" r="2"/><circle cx="600" cy="430" r="2"/>
    <circle cx="700" cy="430" r="2"/><circle cx="800" cy="430" r="2"/><circle cx="900" cy="430" r="2"/>
    <circle cx="1000" cy="430" r="2"/><circle cx="1100" cy="430" r="2"/>
    <circle cx="100" cy="530" r="2"/><circle cx="200" cy="530" r="2"/><circle cx="300" cy="530" r="2"/>
    <circle cx="400" cy="530" r="2"/><circle cx="500" cy="530" r="2"/><circle cx="600" cy="530" r="2"/>
    <circle cx="700" cy="530" r="2"/><circle cx="800" cy="530" r="2"/><circle cx="900" cy="530" r="2"/>
    <circle cx="1000" cy="530" r="2"/><circle cx="1100" cy="530" r="2"/>
  </g>

  <!-- Anchor icon (simplified) -->
  <g transform="translate(600, 125)" fill="none" stroke="url(#accent2)" stroke-width="4" stroke-linecap="round">
    <circle cx="0" cy="-35" r="10"/>
    <line x1="0" y1="-25" x2="0" y2="20"/>
    <path d="M-25 10 Q-25 30 0 30 Q25 30 25 10"/>
    <line x1="-15" y1="-5" x2="15" y2="-5"/>
  </g>

  <!-- Version badge -->
  <rect x="535" y="170" width="130" height="28" rx="14" fill="#1e293b" stroke="#334155" stroke-width="1"/>
  <text x="600" y="189" text-anchor="middle" font-family="system-ui, sans-serif" font-size="13" font-weight="600" fill="#5eead4">v3.1.0</text>

  <!-- Title -->
  <text x="600" y="255" text-anchor="middle" font-family="system-ui, sans-serif" font-size="72" font-weight="800" fill="#e2e8f0" letter-spacing="-1">ShipKit</text>
  <text x="600" y="300" text-anchor="middle" font-family="system-ui, sans-serif" font-size="24" fill="#94a3b8">Your Automated Dev Team</text>

  <!-- Divider -->
  <rect x="450" y="325" width="300" height="4" rx="2" fill="url(#accent)" opacity="0.8"/>

  <!-- Terminal window -->
  <rect x="300" y="355" width="600" height="110" rx="8" fill="#0f172a" stroke="#1e293b" stroke-width="1.5"/>
  <g fill="#475569">
    <circle cx="325" cy="380" r="6"/>
    <circle cx="345" cy="380" r="6"/>
    <circle cx="365" cy="380" r="6"/>
  </g>
  <text x="600" y="400" text-anchor="middle" font-family="ui-monospace, monospace" font-size="14" fill="#5eead4">$ npx shipkit-pipe</text>
  <text x="320" y="425" font-family="ui-monospace, monospace" font-size="14" fill="#64748b">  ✓ Detected: Next.js | npm | Node 22</text>
  <text x="320" y="445" font-family="ui-monospace, monospace" font-size="14" fill="#3b82f6">  ✓ Generated 6 files (2 skipped)</text>

  <!-- Tagline -->
  <text x="600" y="505" text-anchor="middle" font-family="system-ui, sans-serif" font-size="16" fill="#5eead4">One command. Any stack. Production ready.</text>

  <!-- Bottom bar -->
  <rect x="0" y="600" width="1200" height="1" fill="url(#accent)" opacity="0.3"/>
  <text x="600" y="620" text-anchor="middle" font-family="system-ui, sans-serif" font-size="13" fill="#475569">github.com/sagar-grv/shipkit</text>
</svg>
